<svg xmlns="http://www.w3.org/2000/svg" viewBox="0 -0.5 28 28" shape-rendering="crispEdges">
<metadata>Made with Pixels to Svg https://codepen.io/shshaw/pen/XbxvNj</metadata>
<path stroke="#0c6624" d="M0 0h1M27 4h1M27 7h1M14 8h1M16 8h1M7 9h1M21 10h1M6 12h1M21 12h1M19 13h1M19 14h1M21 14h2M21 16h1M24 16h1M13 18h1M14 22h1M19 25h1M21 25h1M27 25h1" />
<path stroke="#0b6221" d="M1 0h1" />
<path stroke="#1ea445" d="M2 0h1" />
<path stroke="#06591e" d="M3 0h1M18 0h1M24 0h1M15 1h1M25 1h1M4 2h1M24 3h1M4 5h1M3 7h1M10 7h1M12 7h2M11 8h1M19 8h1M24 8h1M23 9h1M2 10h1M24 10h1M1 15h1M2 17h1M16 18h1M16 19h1M17 20h1M9 21h1M9 22h1M21 22h1M24 22h1M9 23h1M24 23h1M26 23h1M13 24h1M19 24h1M12 25h1M1 26h2M11 26h1M15 26h1M1 27h1M14 27h1" />
<path stroke="#07581f" d="M4 0h1M18 2h1M4 4h1M3 5h1M2 8h1M21 9h1M26 10h1M25 11h1M2 15h3M19 22h1M26 22h1M25 23h1M20 24h1M13 27h1" />
<path stroke="#07591e" d="M5 0h1M8 0h1M11 0h1M23 0h1M10 1h1M16 2h1M3 4h1M1 7h2M20 7h1M20 9h1M22 10h1M25 10h1M24 11h1M2 13h1M1 14h1M7 14h1M8 15h2M24 21h1M20 22h1M25 22h1M2 24h1M12 26h2" />
<path stroke="#23b04c" d="M6 0h1M21 0h1M1 6h1M1 13h1M0 14h1M8 19h1M8 21h1M15 25h1M21 26h1M24 26h1" />
<path stroke="#06591f" d="M7 0h1M18 1h1M23 2h1M6 4h1M12 5h1M2 6h1M21 7h1M0 8h2M18 8h1M3 9h1M20 10h1M8 12h1M3 14h1M9 14h1M25 21h1M7 23h2M10 23h1M20 23h1M8 24h1M1 25h1M13 25h1M20 25h1M3 26h1M14 26h1M3 27h1M12 27h1" />
<path stroke="#06581f" d="M9 0h2M4 1h1M9 1h1M17 1h1M22 1h1M5 3h1M17 3h1M19 7h1M4 8h1M1 9h1M6 14h1M8 14h1M10 14h1M7 15h1M1 16h1M8 16h1M18 18h1M25 20h1M23 22h1M18 23h1M9 24h1M2 25h1M4 26h1" />
<path stroke="#095c21" d="M12 0h1M20 3h1M14 5h1M12 22h1" />
<path stroke="#23b04d" d="M13 0h1M15 0h1M2 5h1M0 7h1M17 16h1M23 24h1M6 26h1" />
<path stroke="#22b14c" d="M14 0h1M17 8h1M0 13h1" />
<path stroke="#07591f" d="M16 0h2M25 0h1M24 1h1M25 2h1M14 7h1M12 8h1M12 9h1M24 9h1M24 12h1M7 13h2M17 17h1M17 18h1M8 22h1M3 25h1M0 26h1" />
<path stroke="#0d6724" d="M19 0h1M7 1h1M25 3h1M25 6h1M7 7h1M25 7h1M0 9h1M5 9h1M13 9h1M8 11h1M16 11h1M5 13h1M13 15h1M5 16h1M9 16h1M20 16h1M27 16h1M4 18h1M0 19h1M0 20h2M14 23h1M12 24h1M10 26h1" />
<path stroke="#075c21" d="M20 0h1M6 3h1M15 6h1M10 18h1" />
<path stroke="#22b04c" d="M22 0h1M3 1h1M15 2h1M8 4h1M19 6h1M17 7h1M18 9h1M26 9h1M16 16h1M16 17h1M9 18h1M25 19h2M23 20h2M26 20h1M4 25h1M17 25h1M5 27h1M24 27h1" />
<path stroke="#1d963f" d="M26 0h1M19 16h1" />
<path stroke="#075c20" d="M27 0h1M5 2h1M27 5h1M22 6h1M4 16h1" />
<path stroke="#085d20" d="M0 1h1M19 5h1M15 7h1M22 12h1M4 13h1M5 14h1M27 26h1" />
<path stroke="#0e7028" d="M1 1h1M14 12h1M20 14h1M23 15h1M22 16h2" />
<path stroke="#086120" d="M2 1h1M6 2h1M18 11h1" />
<path stroke="#22b14d" d="M5 1h1M11 3h1M16 7h1M25 8h1M9 11h1M9 12h1M24 19h1" />
<path stroke="#158734" d="M6 1h1" />
<path stroke="#06581e" d="M8 1h1M16 1h1M23 1h1M17 2h1M24 2h1M3 3h1M12 6h2M20 6h1M13 8h1M20 8h1M2 9h1M19 9h1M25 9h1M9 13h1M0 15h1M2 16h1M15 19h1M16 20h1M26 21h1M27 22h1M25 24h1M9 25h1M14 25h1M2 27h1" />
<path stroke="#1b963e" d="M11 1h1M16 12h1M19 15h1M10 17h1M4 21h1M15 21h1M4 22h1M2 23h1M18 25h1" />
<path stroke="#0d6c26" d="M12 1h1M22 5h1" />
<path stroke="#0f7128" d="M13 1h1M25 14h1M1 22h1" />
<path stroke="#23b14d" d="M14 1h1M3 6h1M26 7h1M10 11h1M26 11h1M10 13h1M15 17h1M15 23h1M23 26h1M4 27h1" />
<path stroke="#07581e" d="M19 1h1M26 1h1M9 2h1M5 5h1M11 6h1M11 7h1M3 8h1M22 8h1M23 10h1M23 11h1M2 14h1M3 16h1M19 19h1M20 21h1M19 23h1M21 23h1" />
<path stroke="#086022" d="M20 1h1" />
<path stroke="#0d6624" d="M21 1h1M1 3h1M10 5h1M21 5h1M14 6h1M26 6h1M10 9h1M22 9h1M7 11h1M12 13h1M18 13h1M22 15h1M26 15h1M7 16h1M1 17h1M24 17h1M27 17h1M6 18h1M13 19h1M21 19h2M27 19h1M3 20h1M3 21h1M14 21h1M27 21h1M3 22h1M4 23h1M3 24h1M5 24h1M6 25h1M0 27h1M7 27h1M26 27h1" />
<path stroke="#075d20" d="M27 1h1M4 19h1" />
<path stroke="#1b9b41" d="M0 2h1" />
<path stroke="#065d20" d="M1 2h1M5 8h1M20 18h1" />
<path stroke="#075c1e" d="M2 2h1M15 22h1" />
<path stroke="#075f20" d="M3 2h1M1 11h1M13 21h1" />
<path stroke="#0c6625" d="M7 2h1M1 4h1M13 4h1M7 5h2M25 5h1M24 7h1M9 10h1M3 11h1M15 12h1M26 16h1M3 17h1M18 17h1M22 17h1M25 17h1M26 18h1M11 20h1M16 27h1M27 27h1" />
<path stroke="#1ea546" d="M8 2h1" />
<path stroke="#1ea544" d="M10 2h1" />
<path stroke="#168e3b" d="M11 2h1" />
<path stroke="#1b973f" d="M12 2h1M8 6h1M4 11h1M25 12h1M1 24h1" />
<path stroke="#0c6725" d="M13 2h1M22 2h1M23 6h1M15 9h1M13 10h1M3 12h1M13 13h1M15 13h1M20 13h1M27 13h1M14 14h1M23 14h1M19 18h1M21 18h1M3 19h1M10 20h1M20 20h1M3 23h1M5 23h1M27 23h1M11 24h1M26 24h1M17 26h1M8 27h1M21 27h1" />
<path stroke="#0a6523" d="M14 2h1M1 5h1M16 5h2M9 8h1M11 25h1" />
<path stroke="#1b963f" d="M19 2h1M13 14h1M6 16h1M12 16h1" />
<path stroke="#0a6522" d="M20 2h1M19 3h1M17 13h1M21 17h1M9 27h1" />
<path stroke="#0a6423" d="M21 2h1M6 9h1M14 15h1M19 21h1" />
<path stroke="#0d6625" d="M26 2h2M13 5h1M9 9h1M7 12h1M4 14h1M12 15h1M25 15h1M11 16h1M26 17h1M15 18h1M24 18h1M12 20h1M15 20h1M1 21h1M5 21h1M7 21h1M16 21h1M22 22h1M13 23h1M0 24h1M22 24h1M24 24h1M8 25h1M6 27h1" />
<path stroke="#0c6c27" d="M0 3h1" />
<path stroke="#20a747" d="M2 3h1" />
<path stroke="#04581d" d="M4 3h1" />
<path stroke="#065d1e" d="M7 3h1M0 11h1M23 19h1" />
<path stroke="#0f792e" d="M8 3h1" />
<path stroke="#0e6e29" d="M9 3h1" />
<path stroke="#1fa544" d="M10 3h1" />
<path stroke="#0c6f29" d="M12 3h1M16 4h1M23 7h1M12 23h1" />
<path stroke="#0d6e28" d="M13 3h1M23 23h1" />
<path stroke="#1a963e" d="M14 3h1M17 10h1M5 17h1M11 19h1M26 26h1" />
<path stroke="#18943d" d="M15 3h1" />
<path stroke="#0e7128" d="M16 3h1" />
<path stroke="#168e38" d="M18 3h1" />
<path stroke="#1a9a40" d="M21 3h1" />
<path stroke="#1a963f" d="M22 3h1M26 4h1M1 10h1M18 14h1M27 18h1M14 19h1M18 24h1" />
<path stroke="#1d9b41" d="M23 3h1" />
<path stroke="#0c6d26" d="M26 3h1M13 20h1" />
<path stroke="#0c6724" d="M27 3h1M19 4h1M21 4h1M15 10h1M19 10h1M17 11h1M27 11h1M17 12h1M25 13h1M27 15h1M5 18h1M14 18h1M1 19h1M6 20h1M21 20h1M1 23h1M6 23h1M0 25h1M18 27h2M25 27h1" />
<path stroke="#168f3b" d="M0 4h1" />
<path stroke="#04591f" d="M2 4h1" />
<path stroke="#04591e" d="M5 4h1M21 8h1M21 24h1" />
<path stroke="#0c6e28" d="M7 4h1M11 18h1" />
<path stroke="#1fa444" d="M9 4h1M12 12h1M8 18h1" />
<path stroke="#0f762d" d="M10 4h1" />
<path stroke="#095c20" d="M11 4h1" />
<path stroke="#085c20" d="M12 4h1M23 12h1" />
<path stroke="#0d6725" d="M14 4h1M16 6h1M6 7h1M11 9h1M16 9h1M1 12h1M18 12h1M27 12h1M16 13h1M21 13h1M17 14h1M18 15h1M21 15h1M24 15h1M11 17h1M23 21h1M18 22h1M16 23h1M7 24h1M10 25h1" />
<path stroke="#086020" d="M15 4h1" />
<path stroke="#0d6927" d="M17 4h1" />
<path stroke="#168f38" d="M18 4h1" />
<path stroke="#095d21" d="M20 4h1" />
<path stroke="#075d1e" d="M22 4h1M0 5h1M20 12h1M6 17h1" />
<path stroke="#096121" d="M23 4h1" />
<path stroke="#095f20" d="M24 4h1" />
<path stroke="#1b973e" d="M25 4h1M7 6h1M13 16h1M3 18h1M6 22h1M26 25h1" />
<path stroke="#0e712b" d="M6 5h1M15 8h1M12 14h1M5 20h1" />
<path stroke="#0e772f" d="M9 5h1M22 27h1" />
<path stroke="#0f702a" d="M11 5h1" />
<path stroke="#1d973e" d="M15 5h1M3 13h1" />
<path stroke="#0e762c" d="M18 5h1M7 20h1" />
<path stroke="#0d6f29" d="M20 5h1M11 27h1" />
<path stroke="#0f702b" d="M23 5h1M4 9h1M19 12h1M11 15h1M13 17h1" />
<path stroke="#0d6d26" d="M24 5h1" />
<path stroke="#0c6e29" d="M26 5h1M8 9h1" />
<path stroke="#075d21" d="M0 6h1" />
<path stroke="#05591f" d="M4 6h1" />
<path stroke="#1a973e" d="M5 6h1M13 11h1M22 11h1" />
<path stroke="#086221" d="M6 6h1" />
<path stroke="#1c9a40" d="M9 6h1M13 12h1" />
<path stroke="#0f7029" d="M10 6h1M6 15h1" />
<path stroke="#0f772f" d="M17 6h1M23 27h1" />
<path stroke="#23b14c" d="M18 6h1M18 7h1M16 15h1M8 20h2M16 24h1M15 27h1" />
<path stroke="#168f39" d="M21 6h1" />
<path stroke="#0c6b27" d="M24 6h1" />
<path stroke="#0b6423" d="M27 6h1M5 10h2M12 11h1M6 13h1M20 15h1M20 17h1M0 21h1M0 22h1M5 22h1" />
<path stroke="#0f722b" d="M4 7h1" />
<path stroke="#0d6e29" d="M5 7h1M13 22h1" />
<path stroke="#0e7029" d="M8 7h2M14 10h1" />
<path stroke="#085c1f" d="M22 7h1" />
<path stroke="#065c20" d="M6 8h1M8 10h1M5 19h1" />
<path stroke="#096122" d="M7 8h1" />
<path stroke="#0c6c29" d="M8 8h1" />
<path stroke="#1a973f" d="M10 8h1M7 10h1M14 13h1M12 18h1M19 20h1" />
<path stroke="#085d21" d="M23 8h1M24 13h1M19 17h1M22 20h1" />
<path stroke="#0f762f" d="M26 8h1M10 12h1M9 19h1M16 26h1" />
<path stroke="#22b04d" d="M27 8h1M11 11h1M11 12h1M16 14h1M0 16h1M14 16h1M18 16h1M10 19h1M14 24h1M22 26h1" />
<path stroke="#178f3b" d="M14 9h1" />
<path stroke="#0b6522" d="M17 9h1M2 19h1M10 27h1" />
<path stroke="#0f762e" d="M27 9h1" />
<path stroke="#1c9c42" d="M0 10h1" />
<path stroke="#0e702a" d="M3 10h1" />
<path stroke="#0b6523" d="M4 10h1M9 17h1M23 18h1M12 19h1M11 22h1" />
<path stroke="#0f772c" d="M10 10h1M15 16h1" />
<path stroke="#075c1f" d="M11 10h1" />
<path stroke="#0d6a27" d="M12 10h1M20 11h1M2 18h1" />
<path stroke="#0d6f2b" d="M16 10h1" />
<path stroke="#1d9a41" d="M18 10h1" />
<path stroke="#0e762f" d="M27 10h1" />
<path stroke="#065b1f" d="M2 11h1M20 19h1" />
<path stroke="#198e38" d="M5 11h1" />
<path stroke="#095c1f" d="M6 11h1M0 23h1M18 26h1" />
<path stroke="#096020" d="M14 11h1M4 12h1" />
<path stroke="#065d21" d="M15 11h1" />
<path stroke="#085f20" d="M19 11h1M23 13h1" />
<path stroke="#188f3a" d="M21 11h1" />
<path stroke="#0e772d" d="M0 12h1" />
<path stroke="#188e38" d="M2 12h1" />
<path stroke="#055a1e" d="M5 12h1" />
<path stroke="#18933a" d="M26 12h1" />
<path stroke="#0f772e" d="M11 13h1M15 24h1" />
<path stroke="#095d1f" d="M22 13h1M25 25h1" />
<path stroke="#0e7129" d="M26 13h1M17 27h1" />
<path stroke="#065c21" d="M11 14h1" />
<path stroke="#0b6422" d="M15 14h1M4 17h1M2 20h1M14 20h1" />
<path stroke="#0a6422" d="M24 14h1" />
<path stroke="#085c21" d="M26 14h1" />
<path stroke="#095d20" d="M27 14h1M14 17h1M6 21h1M17 22h1" />
<path stroke="#085e21" d="M5 15h1" />
<path stroke="#1d9b40" d="M10 15h1M0 17h1" />
<path stroke="#1ea447" d="M15 15h1" />
<path stroke="#0e772e" d="M17 15h1M27 20h1M4 24h1" />
<path stroke="#0c6d29" d="M10 16h1" />
<path stroke="#198e3a" d="M25 16h1" />
<path stroke="#065f21" d="M7 17h1" />
<path stroke="#0e732a" d="M8 17h1" />
<path stroke="#0e702b" d="M12 17h1" />
<path stroke="#178e3a" d="M23 17h1" />
<path stroke="#096120" d="M0 18h1" />
<path stroke="#065e20" d="M1 18h1" />
<path stroke="#1ea446" d="M7 18h1M6 19h1M25 26h1" />
<path stroke="#198f38" d="M22 18h1" />
<path stroke="#0e762e" d="M25 18h1M5 26h1" />
<path stroke="#1fa546" d="M7 19h1" />
<path stroke="#06591c" d="M17 19h1" />
<path stroke="#05591c" d="M18 19h1M18 20h1" />
<path stroke="#0f7028" d="M4 20h1M12 21h1" />
<path stroke="#0f7129" d="M2 21h1M18 21h1" />
<path stroke="#0e712a" d="M10 21h1M21 21h1" />
<path stroke="#075b1f" d="M11 21h1" />
<path stroke="#04581e" d="M17 21h1M10 24h1" />
<path stroke="#086121" d="M22 21h1" />
<path stroke="#096123" d="M2 22h1" />
<path stroke="#1a9b3e" d="M7 22h1" />
<path stroke="#07581d" d="M10 22h1" />
<path stroke="#045c21" d="M16 22h1" />
<path stroke="#05591d" d="M11 23h1" />
<path stroke="#168e39" d="M17 23h1" />
<path stroke="#05581d" d="M22 23h1" />
<path stroke="#178634" d="M6 24h1" />
<path stroke="#096320" d="M17 24h1" />
<path stroke="#19903d" d="M27 24h1" />
<path stroke="#086323" d="M5 25h1" />
<path stroke="#1c963e" d="M7 25h1" />
<path stroke="#086223" d="M16 25h1" />
<path stroke="#1fa445" d="M22 25h1" />
<path stroke="#0f772d" d="M23 25h1" />
<path stroke="#0e792f" d="M24 25h1" />
<path stroke="#0c6f28" d="M7 26h1" />
<path stroke="#075f21" d="M8 26h1" />
<path stroke="#095d1e" d="M9 26h1" />
<path stroke="#065f20" d="M19 26h1" />
<path stroke="#085c1e" d="M20 26h1" />
<path stroke="#0c6c26" d="M20 27h1" />
</svg>