<svg xmlns="http://www.w3.org/2000/svg" viewBox="0 -0.5 28 28" shape-rendering="crispEdges">
<metadata>Made with Pixels to Svg https://codepen.io/shshaw/pen/XbxvNj</metadata>
<path stroke="#1edf53" d="M0 0h1" />
<path stroke="#23b14d" d="M1 0h1M27 0h1M22 1h1M7 2h1M12 5h1M7 6h1M0 9h1M10 9h1M26 9h1M3 10h2M11 11h1M14 11h1M25 11h1M18 14h1M19 17h1M8 19h1M1 21h1M0 23h1M15 23h1M5 24h1M27 24h1" />
<path stroke="#1ee657" d="M2 0h1M3 1h1M9 2h1M27 4h1M9 11h1M26 19h1M18 20h1M5 21h1M12 21h1M14 21h1M23 22h1M27 25h1M6 27h1" />
<path stroke="#20c54e" d="M3 0h1M8 14h1" />
<path stroke="#1fe657" d="M4 0h1M12 2h1M19 2h1M20 5h2M18 9h1M25 9h1M7 11h1M8 12h1M11 13h1M24 15h1M27 16h1M0 17h1M23 17h1M17 18h1M19 18h1M1 19h1M18 19h1M18 21h1M6 22h1M26 22h1M4 23h1M14 23h1M21 24h1M24 24h1M19 25h1" />
<path stroke="#1fe055" d="M5 0h1M0 6h1M6 16h1" />
<path stroke="#1ecf51" d="M6 0h1" />
<path stroke="#20bd4e" d="M7 0h1M14 1h1M9 21h1" />
<path stroke="#1fe053" d="M8 0h1" />
<path stroke="#27d64e" d="M9 0h1" />
<path stroke="#30b449" d="M10 0h1" />
<path stroke="#1fd253" d="M11 0h1M21 3h1M8 15h1M3 18h1M24 20h1M20 23h1M15 24h1" />
<path stroke="#72ce31" d="M12 0h1" />
<path stroke="#22b14c" d="M13 0h1M9 1h1M16 1h1M2 3h1M20 3h1M4 4h1M0 5h1M14 5h1M18 7h1M8 8h2M20 9h1M0 10h1M12 11h1M20 14h1M18 16h1M7 17h1M24 18h1M27 19h1M25 21h1M19 22h1M19 23h1M16 24h1M11 25h1M13 25h1M16 25h1M14 26h1M16 26h1M11 27h1" />
<path stroke="#23b24d" d="M14 0h1M6 8h1M19 11h1M7 27h1" />
<path stroke="#36b847" d="M15 0h1" />
<path stroke="#20b14d" d="M16 0h1" />
<path stroke="#1fcf50" d="M17 0h1" />
<path stroke="#23b04c" d="M18 0h1M26 0h1M20 2h1M15 4h1M8 5h1M0 8h1M12 9h1M22 9h1M11 10h1M25 10h1M1 11h1M3 11h1M3 16h1M8 16h1M17 16h1M19 16h1M26 16h1M6 17h1M9 17h1M6 18h1M8 18h1M7 19h1M23 19h1M22 21h1M22 22h1M6 23h2M15 25h1M21 25h1M15 26h1M14 27h1M26 27h1" />
<path stroke="#21c351" d="M19 0h1M3 26h1" />
<path stroke="#22b74c" d="M20 0h1M18 12h1" />
<path stroke="#1fe756" d="M21 0h1M10 3h1M15 3h1M27 3h1M10 4h1M21 6h1M25 6h1M22 8h1M27 10h1M6 11h1M26 11h1M5 12h1M13 16h1M11 19h1M20 19h1M13 20h2M19 20h1M13 21h1M4 22h1" />
<path stroke="#1de657" d="M22 0h1" />
<path stroke="#1ce655" d="M23 0h1" />
<path stroke="#1cd753" d="M24 0h1" />
<path stroke="#1fd652" d="M25 0h1M14 10h1M21 10h1M19 26h1M23 27h1" />
<path stroke="#22b04c" d="M0 1h1M21 2h1M3 3h1M3 4h1M21 4h1M22 5h1M19 6h1M23 6h1M21 7h1M4 8h1M24 8h1M7 14h1M19 14h1M20 15h1M20 16h1M27 17h1M1 22h1M10 22h1M24 22h1M21 26h1M0 27h1" />
<path stroke="#21c24e" d="M1 1h1" />
<path stroke="#1ee756" d="M2 1h1M4 1h1M4 2h1M13 2h1M9 3h1M26 7h1M20 8h1M2 11h1M3 12h1M9 13h1M17 14h1M26 15h1M25 16h1M0 18h1M26 18h1M13 19h1M19 19h1M0 20h1M12 20h1M27 21h1M12 22h1" />
<path stroke="#1ee656" d="M5 1h1M13 1h1M9 4h1M14 4h1M13 5h1M27 9h1M25 17h1M1 18h1M10 20h1M3 23h1M5 23h1M1 24h1M13 24h1M22 24h1M4 25h1" />
<path stroke="#1de555" d="M6 1h1M21 14h1" />
<path stroke="#1ee054" d="M7 1h1M6 15h1M13 17h1" />
<path stroke="#1ed052" d="M8 1h1" />
<path stroke="#1fe656" d="M10 1h1M1 2h2M26 2h1M1 3h1M13 3h2M25 4h1M7 5h1M19 7h1M24 9h1M13 14h1M2 18h1M18 18h1M27 18h1M16 19h1M17 20h1M3 21h1M23 23h2M6 25h1M22 25h4M23 26h1" />
<path stroke="#23b64c" d="M11 1h1M16 9h1M26 14h1M21 16h1" />
<path stroke="#21c14e" d="M12 1h1" />
<path stroke="#1ed853" d="M15 1h1" />
<path stroke="#20b94d" d="M17 1h1" />
<path stroke="#23c24e" d="M18 1h1" />
<path stroke="#22b64c" d="M19 1h1M10 2h1M25 3h1M22 13h1M23 16h1" />
<path stroke="#1fdb54" d="M20 1h1M3 25h1" />
<path stroke="#20b64c" d="M21 1h1M22 15h1" />
<path stroke="#21c44f" d="M23 1h1" />
<path stroke="#23b74c" d="M24 1h1M25 15h1" />
<path stroke="#1fdf57" d="M25 1h1" />
<path stroke="#21b14d" d="M26 1h1" />
<path stroke="#1ee055" d="M27 1h1" />
<path stroke="#22b34c" d="M0 2h1M7 20h1M18 25h1" />
<path stroke="#23b04d" d="M3 2h1M8 2h1M22 2h1M22 3h1M11 4h1M26 4h1M20 6h1M9 7h1M12 7h1M4 9h1M6 10h1M27 11h1M11 12h2M11 14h1M0 15h1M8 17h1M14 17h1M16 17h2M5 19h1M21 22h1M20 24h1M5 25h1M16 27h1M19 27h1" />
<path stroke="#21c54f" d="M5 2h1" />
<path stroke="#1ddb52" d="M6 2h1" />
<path stroke="#23c44e" d="M11 2h1" />
<path stroke="#fff200" d="M14 2h1M24 17h1M22 23h1" />
<path stroke="#22b24c" d="M15 2h1M9 6h1M25 14h1M16 20h1" />
<path stroke="#20d550" d="M16 2h1" />
<path stroke="#1ebf4e" d="M17 2h1" />
<path stroke="#1ed455" d="M18 2h1" />
<path stroke="#23b14c" d="M23 2h1M6 3h1M0 4h2M20 4h1M22 4h1M8 6h1M14 6h1M22 6h1M5 9h1M5 10h1M12 10h2M22 10h1M4 11h1M13 11h1M12 13h1M1 14h1M1 15h1M19 15h1M24 16h1M5 17h1M15 18h1M25 18h1M24 19h1M23 21h1M11 22h1M13 23h1M12 25h1M14 25h1M17 26h1M4 27h1M9 27h2M15 27h1" />
<path stroke="#23c34f" d="M24 2h1" />
<path stroke="#22b74d" d="M25 2h1M17 12h1M10 15h1M10 21h1" />
<path stroke="#1ed253" d="M27 2h1M20 10h1M27 13h1" />
<path stroke="#1ce656" d="M0 3h1M16 14h1" />
<path stroke="#22b04d" d="M4 3h1M16 4h1M23 4h1M6 7h1M19 8h1M27 8h1M3 9h1M4 12h1M13 12h1M19 13h1M17 15h1M1 16h1M5 16h1M2 21h1M13 22h1M13 26h1M20 26h1" />
<path stroke="#1ae153" d="M5 3h1" />
<path stroke="#1fd353" d="M7 3h1M10 10h1M12 16h1" />
<path stroke="#20c24e" d="M8 3h1M9 9h1M3 13h1M17 23h1" />
<path stroke="#1ee757" d="M11 3h2M12 4h1M24 4h1M15 9h1M4 20h1M4 21h1M11 21h1M4 24h1M7 24h1M26 25h1" />
<path stroke="#1fd553" d="M16 3h1M22 27h1" />
<path stroke="#20bb4f" d="M17 3h1" />
<path stroke="#1dd552" d="M18 3h1" />
<path stroke="#21b84c" d="M19 3h1" />
<path stroke="#22b14d" d="M23 3h1M2 4h1M5 4h1M2 5h1M16 5h1M0 7h1M10 7h1M23 8h1M25 8h1M2 10h1M24 10h1M5 11h1M10 11h1M23 12h1M25 19h1M19 21h1M0 26h1M27 26h1M3 27h1" />
<path stroke="#20b84d" d="M24 3h1M3 6h1M21 20h1" />
<path stroke="#1de756" d="M26 3h1M6 13h1M7 26h1" />
<path stroke="#22b94d" d="M6 4h1" />
<path stroke="#20be4f" d="M7 4h1M4 19h1" />
<path stroke="#1fd653" d="M8 4h1" />
<path stroke="#1fe757" d="M13 4h1M20 7h1M22 7h1M21 8h1M26 8h1M21 9h1M26 10h1M0 11h1M5 13h1M0 16h1M1 17h1M18 17h1M26 17h1M12 18h1M0 19h1M12 19h1M17 19h1M11 20h1M2 22h1M5 22h1M23 24h1M25 24h1M26 26h1M18 27h1" />
<path stroke="#22b54f" d="M17 4h1" />
<path stroke="#21b74c" d="M18 4h1M23 10h1" />
<path stroke="#1ce052" d="M19 4h1" />
<path stroke="#1fe155" d="M1 5h1" />
<path stroke="#fef300" d="M3 5h1" />
<path stroke="#21be4f" d="M4 5h1" />
<path stroke="#21c650" d="M5 5h1" />
<path stroke="#1ee654" d="M6 5h1" />
<path stroke="#26d64e" d="M9 5h1" />
<path stroke="#21bf4e" d="M10 5h1M24 13h1" />
<path stroke="#1fdf56" d="M11 5h1" />
<path stroke="#21b74e" d="M15 5h1M5 15h1" />
<path stroke="#23b54c" d="M17 5h1M27 23h1" />
<path stroke="#1ed552" d="M18 5h1" />
<path stroke="#1de654" d="M19 5h1M9 22h1M16 23h1" />
<path stroke="#1dda52" d="M23 5h1" />
<path stroke="#fef200" d="M24 5h1M13 15h1" />
<path stroke="#1ce657" d="M25 5h1" />
<path stroke="#1fe554" d="M26 5h1M2 9h1" />
<path stroke="#1ec251" d="M27 5h1" />
<path stroke="#1ed653" d="M1 6h1" />
<path stroke="#1ddd55" d="M2 6h1" />
<path stroke="#21c24f" d="M4 6h1" />
<path stroke="#1fe154" d="M5 6h1M2 27h1" />
<path stroke="#1ce754" d="M6 6h1" />
<path stroke="#20c04e" d="M10 6h1" />
<path stroke="#1ed953" d="M11 6h1" />
<path stroke="#1ee655" d="M12 6h1M23 7h1M24 14h1M14 19h1" />
<path stroke="#1ed752" d="M13 6h1M12 23h1" />
<path stroke="#1bd952" d="M15 6h1" />
<path stroke="#1fdf55" d="M16 6h1M18 22h1" />
<path stroke="#21c34f" d="M17 6h1" />
<path stroke="#1ce155" d="M18 6h1" />
<path stroke="#1ce554" d="M24 6h1" />
<path stroke="#21b14c" d="M26 6h1M13 8h1M25 13h1M12 27h1" />
<path stroke="#20b74e" d="M27 6h1M12 24h1" />
<path stroke="#1ec652" d="M1 7h1" />
<path stroke="#21ba4c" d="M2 7h1" />
<path stroke="#20b94e" d="M3 7h1M2 20h1" />
<path stroke="#1ee755" d="M4 7h1" />
<path stroke="#1de655" d="M5 7h1" />
<path stroke="#20bf4e" d="M7 7h1" />
<path stroke="#21b94e" d="M8 7h1M2 26h1" />
<path stroke="#24b24c" d="M11 7h1" />
<path stroke="#21b64c" d="M13 7h1M11 18h1M13 27h1" />
<path stroke="#21c04e" d="M14 7h1" />
<path stroke="#1ce255" d="M15 7h1" />
<path stroke="#1ce757" d="M16 7h1M14 16h1M3 22h1M18 23h1" />
<path stroke="#1fe755" d="M17 7h1M23 20h1" />
<path stroke="#1fd452" d="M24 7h1M19 10h1" />
<path stroke="#23b24c" d="M25 7h1M9 15h1" />
<path stroke="#1eda55" d="M27 7h1M0 25h1" />
<path stroke="#23b94d" d="M1 8h1M19 12h1" />
<path stroke="#1de352" d="M2 8h1" />
<path stroke="#1fde53" d="M3 8h1" />
<path stroke="#20bc4f" d="M5 8h1M8 9h1" />
<path stroke="#20bc4e" d="M7 8h1" />
<path stroke="#21bd4e" d="M10 8h1M22 17h1" />
<path stroke="#20b74f" d="M11 8h1M18 10h1" />
<path stroke="#32be49" d="M12 8h1" />
<path stroke="#1ce053" d="M14 8h1" />
<path stroke="#22b64d" d="M15 8h1M18 26h1" />
<path stroke="#23b34d" d="M16 8h1" />
<path stroke="#21bf4f" d="M17 8h1" />
<path stroke="#20b64f" d="M18 8h1" />
<path stroke="#1ee754" d="M1 9h1" />
<path stroke="#1ee554" d="M6 9h1" />
<path stroke="#22c04e" d="M7 9h1M22 16h1" />
<path stroke="#1ed352" d="M11 9h1M13 9h1M24 11h1M3 17h1" />
<path stroke="#20c44e" d="M14 9h1M15 11h1" />
<path stroke="#1ce555" d="M17 9h1" />
<path stroke="#21b04c" d="M19 9h1M22 20h1" />
<path stroke="#21b64d" d="M23 9h1M12 14h1M2 23h1" />
<path stroke="#1fe455" d="M1 10h1" />
<path stroke="#20c04f" d="M7 10h1" />
<path stroke="#1ddd53" d="M8 10h1" />
<path stroke="#20b64e" d="M9 10h1" />
<path stroke="#20c34e" d="M15 10h1M1 25h1" />
<path stroke="#21c44e" d="M16 10h1" />
<path stroke="#1ed954" d="M17 10h1" />
<path stroke="#1ce455" d="M8 11h1M7 15h1" />
<path stroke="#1ccb53" d="M16 11h1" />
<path stroke="#1fcf53" d="M17 11h1" />
<path stroke="#20c250" d="M18 11h1M22 18h1" />
<path stroke="#1eb94e" d="M20 11h1" />
<path stroke="#1ce355" d="M21 11h1" />
<path stroke="#1ed252" d="M22 11h1M2 16h1M25 20h1M2 25h1M1 27h1" />
<path stroke="#1ed353" d="M23 11h1M18 15h1M21 18h1M21 23h1M10 26h1" />
<path stroke="#21c551" d="M0 12h1" />
<path stroke="#20c34f" d="M1 12h1" />
<path stroke="#1de757" d="M2 12h1M1 23h1M26 24h1" />
<path stroke="#1fe156" d="M6 12h1" />
<path stroke="#1de053" d="M7 12h1" />
<path stroke="#1ed856" d="M9 12h1" />
<path stroke="#1ecf54" d="M10 12h1" />
<path stroke="#21bc4f" d="M14 12h1" />
<path stroke="#1ece53" d="M15 12h1M21 17h1M19 24h1" />
<path stroke="#1dd855" d="M16 12h1" />
<path stroke="#20ba4e" d="M20 12h1" />
<path stroke="#1fb94e" d="M21 12h1" />
<path stroke="#23b44c" d="M22 12h1" />
<path stroke="#1ce755" d="M24 12h1M8 25h1" />
<path stroke="#1fd352" d="M25 12h1M15 17h1M15 19h1M22 19h1M1 20h1M20 22h1M25 22h1" />
<path stroke="#1edb55" d="M26 12h1" />
<path stroke="#21bc4e" d="M27 12h1M7 13h1" />
<path stroke="#1fe555" d="M0 13h1" />
<path stroke="#1edf52" d="M1 13h1" />
<path stroke="#fef201" d="M2 13h1M7 22h1" />
<path stroke="#22c14e" d="M4 13h1" />
<path stroke="#20c54f" d="M8 13h1" />
<path stroke="#1ed854" d="M10 13h1" />
<path stroke="#1edb54" d="M13 13h1" />
<path stroke="#1ed151" d="M14 13h1" />
<path stroke="#1dd853" d="M15 13h1M12 26h1" />
<path stroke="#23b14b" d="M16 13h1" />
<path stroke="#23b74d" d="M17 13h1" />
<path stroke="#1fe654" d="M18 13h1M6 26h1" />
<path stroke="#20bf50" d="M20 13h1" />
<path stroke="#23b14f" d="M21 13h1" />
<path stroke="#21b84f" d="M23 13h1" />
<path stroke="#1fdb53" d="M26 13h1M8 22h1" />
<path stroke="#1ee555" d="M0 14h1M16 22h1" />
<path stroke="#1ee354" d="M2 14h1" />
<path stroke="#1de554" d="M3 14h1M9 26h1" />
<path stroke="#1fde52" d="M4 14h1" />
<path stroke="#1fd752" d="M5 14h1M11 16h1M0 21h1" />
<path stroke="#20b54c" d="M6 14h1" />
<path stroke="#22b34b" d="M9 14h1" />
<path stroke="#21c050" d="M10 14h1" />
<path stroke="#21c450" d="M14 14h1M24 26h1" />
<path stroke="#22b04a" d="M15 14h1M24 27h1" />
<path stroke="#22b44c" d="M22 14h1M8 27h1" />
<path stroke="#1ecb52" d="M23 14h1" />
<path stroke="#20bf4f" d="M27 14h1" />
<path stroke="#1ee155" d="M2 15h1" />
<path stroke="#1fe054" d="M3 15h1" />
<path stroke="#1de256" d="M4 15h1" />
<path stroke="#1eb951" d="M11 15h1" />
<path stroke="#1fde57" d="M12 15h1" />
<path stroke="#22b24d" d="M14 15h1" />
<path stroke="#1fc952" d="M15 15h1" />
<path stroke="#21b94c" d="M16 15h1M20 20h1" />
<path stroke="#21b64f" d="M21 15h1" />
<path stroke="#1fd952" d="M23 15h1" />
<path stroke="#1de152" d="M27 15h1" />
<path stroke="#1fc850" d="M4 16h1" />
<path stroke="#1de154" d="M7 16h1" />
<path stroke="#20b74c" d="M9 16h1" />
<path stroke="#21b74a" d="M10 16h1" />
<path stroke="#20b74d" d="M15 16h1M20 27h1M27 27h1" />
<path stroke="#1fd350" d="M16 16h1" />
<path stroke="#20b94f" d="M2 17h1M4 17h1M14 22h1M6 24h1" />
<path stroke="#1fd450" d="M10 17h1" />
<path stroke="#1fdf54" d="M11 17h1" />
<path stroke="#1fd252" d="M12 17h1M11 23h1M14 24h1M11 26h1" />
<path stroke="#1ed453" d="M20 17h1" />
<path stroke="#1ddc55" d="M4 18h1" />
<path stroke="#3ce148" d="M5 18h1" />
<path stroke="#20b84c" d="M7 18h1M0 22h1" />
<path stroke="#1dda55" d="M9 18h1" />
<path stroke="#1ed351" d="M10 18h1" />
<path stroke="#1ee154" d="M13 18h1" />
<path stroke="#1ed652" d="M14 18h1" />
<path stroke="#21b74d" d="M16 18h1" />
<path stroke="#1aca50" d="M20 18h1" />
<path stroke="#1ebe4f" d="M23 18h1" />
<path stroke="#1ed251" d="M2 19h1" />
<path stroke="#24b04c" d="M3 19h1" />
<path stroke="#22b04b" d="M6 19h1" />
<path stroke="#20b04c" d="M9 19h1" />
<path stroke="#20b34d" d="M10 19h1" />
<path stroke="#1dd653" d="M21 19h1" />
<path stroke="#22b14a" d="M3 20h1" />
<path stroke="#22b74e" d="M5 20h1" />
<path stroke="#1ed452" d="M6 20h1" />
<path stroke="#20c74f" d="M8 20h1" />
<path stroke="#23b04b" d="M9 20h1" />
<path stroke="#1cd653" d="M15 20h1" />
<path stroke="#1fd853" d="M26 20h1" />
<path stroke="#2cde4e" d="M27 20h1" />
<path stroke="#1fe754" d="M6 21h1" />
<path stroke="#1dd952" d="M7 21h1" />
<path stroke="#1be756" d="M8 21h1" />
<path stroke="#22b44d" d="M15 21h1" />
<path stroke="#1fdd54" d="M16 21h1" />
<path stroke="#20b64d" d="M17 21h1M18 24h1" />
<path stroke="#21b84e" d="M20 21h1" />
<path stroke="#1fd551" d="M21 21h1" />
<path stroke="#24b34a" d="M24 21h1" />
<path stroke="#39db48" d="M26 21h1" />
<path stroke="#22b34d" d="M15 22h1M22 26h1" />
<path stroke="#1de454" d="M17 22h1" />
<path stroke="#4ec63f" d="M27 22h1" />
<path stroke="#22c34f" d="M8 23h1" />
<path stroke="#21b44e" d="M9 23h1" />
<path stroke="#1ed852" d="M10 23h1" />
<path stroke="#21b54d" d="M25 23h1" />
<path stroke="#53e740" d="M26 23h1" />
<path stroke="#1ed553" d="M0 24h1" />
<path stroke="#23b54d" d="M2 24h1" />
<path stroke="#22b54d" d="M3 24h1" />
<path stroke="#20c14f" d="M8 24h1" />
<path stroke="#1ce154" d="M9 24h1" />
<path stroke="#21b64e" d="M10 24h1" />
<path stroke="#20be4e" d="M11 24h1" />
<path stroke="#23b84c" d="M17 24h1" />
<path stroke="#1fde56" d="M7 25h1" />
<path stroke="#1ce454" d="M9 25h1" />
<path stroke="#21c051" d="M10 25h1" />
<path stroke="#23b34c" d="M17 25h1" />
<path stroke="#1ec851" d="M20 25h1" />
<path stroke="#fff301" d="M1 26h1" />
<path stroke="#21c851" d="M4 26h1" />
<path stroke="#23c14f" d="M5 26h1" />
<path stroke="#20e553" d="M8 26h1" />
<path stroke="#21c853" d="M25 26h1" />
<path stroke="#1fe057" d="M5 27h1" />
<path stroke="#1dda53" d="M17 27h1" />
<path stroke="#1fdc53" d="M21 27h1" />
<path stroke="#23b64d" d="M25 27h1" />
</svg>