<svg xmlns="http://www.w3.org/2000/svg" viewBox="0 -0.5 28 28" shape-rendering="crispEdges">
<metadata>Made with Pixels to Svg https://codepen.io/shshaw/pen/XbxvNj</metadata>
<path stroke="#3e49cd" d="M0 0h1M9 1h1M13 1h1M17 1h1M27 1h1M13 2h1M22 4h2M25 4h1M4 5h1M6 5h1M5 6h1M4 7h2M3 8h1M7 9h1M20 9h2M23 9h1M1 10h2M8 10h1M10 10h1M10 11h1M14 11h1M7 12h1M15 12h1M1 13h1M3 13h1M7 13h2M12 13h1M14 13h1M13 15h1M18 15h1M26 15h1M3 16h1M18 18h1M24 18h1M1 19h1M19 20h1M12 21h1M17 21h1M23 21h1M1 22h1M10 22h1M12 22h1M23 22h1M6 23h1M8 23h1M27 23h1M0 24h1M11 24h1M25 24h1M27 24h1M11 25h1M13 25h1M2 26h1M10 26h1M22 26h1M19 27h1M22 27h1" />
<path stroke="#3f49cc" d="M1 0h1M18 0h1M21 0h1M10 1h1M14 1h1M18 1h3M25 1h1M1 2h1M11 2h1M19 2h1M22 2h2M5 3h1M26 3h1M1 4h1M17 4h1M26 4h1M12 5h1M22 5h1M25 5h1M3 6h1M9 6h2M24 6h1M2 7h1M6 8h1M12 8h1M15 8h1M3 9h1M11 9h1M18 9h1M27 9h1M4 10h1M7 10h1M27 10h1M0 11h1M3 11h1M2 12h1M4 12h1M17 12h1M0 14h1M6 14h1M9 14h1M13 14h1M15 14h1M27 14h1M1 15h1M6 15h1M8 15h1M9 16h3M1 17h1M8 17h1M13 17h1M21 18h2M24 19h2M27 19h1M25 20h1M6 21h1M11 21h1M25 21h1M27 21h1M2 22h1M13 22h1M1 23h1M7 23h1M9 23h1M11 23h1M13 23h1M19 23h1M21 23h1M24 23h1M2 24h1M12 25h1M24 25h1M11 26h2M16 26h1M21 26h1M27 26h1M6 27h1M9 27h1M24 27h1" />
<path stroke="#4650d0" d="M2 0h1M16 1h1M14 2h1M8 3h1" />
<path stroke="#3e48ce" d="M3 0h1M23 10h1" />
<path stroke="#3e49cc" d="M4 0h1M0 1h1M10 3h1M24 3h1M3 4h1M19 4h1M7 5h1M27 5h1M11 6h1M16 6h1M3 7h1M13 7h1M20 7h2M10 8h1M14 8h1M18 8h1M20 8h1M22 9h1M0 10h1M3 10h1M1 11h1M13 13h1M27 13h1M1 14h1M3 14h1M3 15h1M10 15h1M19 15h1M24 15h2M13 16h1M20 16h1M0 17h1M2 17h1M4 17h1M24 17h1M1 18h1M19 18h1M14 19h2M21 19h1M23 19h1M0 20h1M22 20h1M26 20h2M0 21h1M2 21h1M10 21h1M5 22h1M4 23h1M21 24h1M1 25h1M15 25h1M26 25h1M15 26h1M18 26h1M0 27h1M4 27h2M8 27h1M26 27h1" />
<path stroke="#3f48cd" d="M5 0h1M7 0h1M13 0h1M25 0h1M12 1h1M4 2h1M6 2h1M9 2h2M4 3h1M12 3h1M18 3h1M22 3h1M0 4h1M4 4h1M10 4h1M12 4h2M5 5h1M9 5h1M21 5h1M24 5h1M27 6h1M24 7h1M1 8h1M17 8h1M27 8h1M10 9h1M13 9h2M17 9h1M14 10h2M17 10h1M7 11h1M12 11h1M20 11h1M26 11h1M0 12h1M6 12h1M0 13h1M18 13h1M24 13h3M4 14h2M8 14h1M19 14h1M4 15h1M23 15h1M27 15h1M18 17h1M11 18h1M23 18h1M26 18h1M8 19h1M26 19h1M13 20h1M20 20h2M23 20h1M3 22h2M15 22h1M26 22h1M15 23h1M6 24h1M8 24h1M22 24h1M19 25h1M6 26h1M20 26h1M1 27h1M7 27h1M13 27h1M18 27h1M27 27h1" />
<path stroke="#3f49cd" d="M6 0h1M10 0h1M14 0h1M26 0h1M5 2h1M7 2h2M16 2h2M25 2h1M25 3h1M3 5h1M10 5h2M6 6h1M19 6h2M16 7h1M19 7h1M7 8h1M23 8h2M5 10h1M5 11h1M20 12h1M27 12h1M6 13h1M16 13h1M23 13h1M23 14h1M12 15h1M22 15h1M2 16h1M8 16h1M16 16h1M18 16h1M25 16h1M27 16h1M5 17h3M12 17h1M16 17h1M4 18h1M5 19h1M19 19h1M1 20h1M5 20h1M8 20h1M3 21h1M5 21h1M9 21h1M24 21h1M6 22h1M12 23h1M22 23h1M22 25h2M27 25h1M25 26h1M10 27h2" />
<path stroke="#3e48cc" d="M8 0h2M11 0h1M15 0h1M19 0h1M24 1h1M0 2h1M3 3h1M11 4h1M23 5h1M0 6h1M4 6h1M18 6h1M22 7h1M16 9h1M24 10h1M4 11h1M19 12h1M2 13h1M4 13h2M17 13h1M11 15h1M15 16h1M22 16h1M19 17h1M22 17h1M14 18h2M0 19h1M20 19h1M22 19h1M15 20h1M4 21h1M15 21h1M19 21h1M21 21h1M9 22h1M18 22h1M14 23h1M9 24h1M0 25h1M25 25h1M26 26h1M12 27h1" />
<path stroke="#3e48cd" d="M12 0h1M20 0h1M24 0h1M27 0h1M11 1h1M15 1h1M15 2h1M2 4h1M6 4h1M24 4h1M0 5h1M2 5h1M13 5h1M15 5h1M8 6h1M12 6h1M8 7h1M10 7h1M15 7h1M17 7h2M23 7h1M0 8h1M26 8h1M0 9h1M9 9h1M15 9h1M6 10h1M9 10h1M16 10h1M22 10h1M6 11h1M27 11h1M3 12h1M23 12h1M21 13h2M7 14h1M14 14h1M16 14h1M21 14h1M26 14h1M0 15h1M2 15h1M5 15h1M7 15h1M9 15h1M15 15h1M0 16h1M6 16h1M12 16h1M21 16h1M23 16h1M10 17h2M21 17h1M0 18h1M12 18h1M16 18h1M27 18h1M2 19h1M7 19h1M17 19h1M6 20h1M12 20h1M1 21h1M26 21h1M0 22h1M7 22h1M3 23h1M25 23h2M24 24h1M26 24h1M10 25h1M21 25h1M0 26h2M3 26h1M9 26h1M14 26h1M24 26h1M14 27h1M20 27h1M23 27h1" />
<path stroke="#3f48cc" d="M16 0h2M23 0h1M6 1h1M12 2h1M18 2h1M24 2h1M0 3h1M15 3h1M17 3h1M23 3h1M5 4h1M9 4h1M16 4h1M1 5h1M17 5h1M7 6h1M14 6h2M21 6h1M9 7h1M11 7h2M5 8h1M8 8h1M11 8h1M16 8h1M1 9h2M18 10h1M2 11h1M13 11h1M16 11h2M1 12h1M5 12h1M16 12h1M21 12h1M26 12h1M19 13h1M2 14h1M12 14h1M24 14h1M1 16h1M4 16h1M7 16h1M9 17h1M20 17h1M26 17h2M10 18h1M20 18h1M4 19h1M3 20h2M14 20h1M16 20h1M8 21h1M16 21h1M11 22h1M14 22h1M16 22h1M27 22h1M4 24h1M10 24h1M23 24h1M2 25h1M20 25h1M4 26h1M23 26h1M2 27h2M21 27h1M25 27h1" />
<path stroke="#4d55d2" d="M22 0h1M2 2h1" />
<path stroke="#474ed0" d="M1 1h1" />
<path stroke="#454dd0" d="M2 1h1" />
<path stroke="#3f49ce" d="M3 1h1M24 9h1" />
<path stroke="#4e57d0" d="M4 1h1" />
<path stroke="#3e47cd" d="M5 1h1M19 5h1M1 7h1M8 9h1M20 10h1M24 11h1M18 14h1M14 16h1M14 17h2M10 20h1M18 20h1M10 23h1M12 24h1" />
<path stroke="#4651d1" d="M7 1h1" />
<path stroke="#3f46cc" d="M8 1h1M11 3h1M26 10h1M21 11h1M23 11h1M12 19h1M7 20h1M8 25h1" />
<path stroke="#4951d1" d="M21 1h1" />
<path stroke="#3e46cf" d="M22 1h1" />
<path stroke="#3f47cc" d="M23 1h1M20 3h1M22 6h1M19 9h1M25 9h1M25 10h1M8 11h1M11 11h1M12 12h1M10 13h1M23 17h1M14 21h1M20 22h1M3 24h1M13 24h1" />
<path stroke="#4b53d1" d="M26 1h1" />
<path stroke="#3e47cf" d="M3 2h1" />
<path stroke="#3c49cf" d="M20 2h1" />
<path stroke="#3e46cd" d="M21 2h1M7 3h1M18 4h1M14 5h1M14 7h1M17 20h1M18 21h1" />
<path stroke="#3f46ce" d="M26 2h1M17 14h1" />
<path stroke="#4e55d0" d="M27 2h1" />
<path stroke="#4e55d1" d="M1 3h1" />
<path stroke="#3e46cc" d="M2 3h1M15 4h1M23 6h1M19 8h1M22 8h1M24 12h2M21 15h1M11 19h1M6 25h1" />
<path stroke="#4c55d0" d="M6 3h1M27 7h1M12 9h1" />
<path stroke="#3f47cf" d="M9 3h1M26 6h1M7 7h1" />
<path stroke="#4650d1" d="M13 3h1" />
<path stroke="#4751d1" d="M14 3h1" />
<path stroke="#6368d9" d="M16 3h1" />
<path stroke="#414bce" d="M19 3h1" />
<path stroke="#3e47ce" d="M21 3h1M17 17h1" />
<path stroke="#4b53d0" d="M27 3h1" />
<path stroke="#4e56d1" d="M7 4h1M3 19h1" />
<path stroke="#3f46cd" d="M8 4h1M8 5h1M26 5h1M25 7h1M25 8h1M13 10h1M14 15h1M16 15h1M17 16h1M9 18h1M23 23h1" />
<path stroke="#6369db" d="M14 4h1" />
<path stroke="#3f47cd" d="M20 4h1M5 9h1M12 10h1M15 11h1M25 11h1M13 12h1M15 13h1M10 14h1M6 18h1M13 19h1M16 19h1M0 23h1M14 24h1M9 25h1" />
<path stroke="#474fd1" d="M21 4h1M6 7h1" />
<path stroke="#3e49cf" d="M27 4h1" />
<path stroke="#474ecf" d="M16 5h1" />
<path stroke="#686edb" d="M18 5h1" />
<path stroke="#3e47cc" d="M20 5h1M13 6h1M25 6h1M9 8h1M13 8h1M21 8h1M26 9h1M19 10h1M21 10h1M22 11h1M18 12h1M11 13h1M17 15h1M13 18h1M6 19h1M18 19h1M7 21h1M13 21h1M7 25h1" />
<path stroke="#444ed1" d="M1 6h1M20 14h1M25 14h1" />
<path stroke="#3e49ce" d="M2 6h1" />
<path stroke="#7f86e2" d="M17 6h1M18 23h1" />
<path stroke="#4d54d1" d="M0 7h1" />
<path stroke="#4c54d0" d="M26 7h1" />
<path stroke="#4c55d1" d="M2 8h1" />
<path stroke="#4148cd" d="M4 8h1" />
<path stroke="#4550d1" d="M4 9h1" />
<path stroke="#4d55d1" d="M6 9h1" />
<path stroke="#4750d0" d="M11 10h1" />
<path stroke="#4751d0" d="M9 11h1M3 18h1M19 26h1" />
<path stroke="#696fda" d="M18 11h1M2 20h1M7 26h1" />
<path stroke="#626ad8" d="M19 11h1" />
<path stroke="#4651d0" d="M8 12h1" />
<path stroke="#4551d1" d="M9 12h1" />
<path stroke="#3f49cf" d="M10 12h1" />
<path stroke="#5a61d7" d="M11 12h1" />
<path stroke="#424bcf" d="M14 12h1" />
<path stroke="#444fd1" d="M22 12h1M14 25h1" />
<path stroke="#636bd9" d="M9 13h1" />
<path stroke="#454ed1" d="M20 13h1M22 22h1" />
<path stroke="#474ece" d="M11 14h1M16 25h1" />
<path stroke="#454ccf" d="M22 14h1" />
<path stroke="#434dce" d="M20 15h1M24 16h1" />
<path stroke="#454ed0" d="M5 16h1" />
<path stroke="#4049cd" d="M19 16h1M9 20h1M17 25h1" />
<path stroke="#444fd0" d="M26 16h1" />
<path stroke="#464fd0" d="M3 17h1" />
<path stroke="#454ace" d="M25 17h1" />
<path stroke="#404bce" d="M2 18h1M11 20h1" />
<path stroke="#6971da" d="M5 18h1" />
<path stroke="#4d54d0" d="M7 18h1" />
<path stroke="#424bcd" d="M8 18h1" />
<path stroke="#414acd" d="M17 18h1" />
<path stroke="#434cce" d="M25 18h1M25 22h1" />
<path stroke="#696eda" d="M9 19h1M1 24h1" />
<path stroke="#4b52d1" d="M10 19h1" />
<path stroke="#454fd1" d="M24 20h1" />
<path stroke="#424ccf" d="M20 21h1" />
<path stroke="#434dcc" d="M22 21h1" />
<path stroke="#696edb" d="M8 22h1" />
<path stroke="#767fe0" d="M17 22h1M17 23h1" />
<path stroke="#4d57d1" d="M19 22h1" />
<path stroke="#414bcc" d="M21 22h1" />
<path stroke="#424ace" d="M24 22h1" />
<path stroke="#414bcd" d="M2 23h1" />
<path stroke="#7f86e3" d="M5 23h1" />
<path stroke="#6f77df" d="M16 23h1" />
<path stroke="#686fdb" d="M20 23h1" />
<path stroke="#555cd5" d="M5 24h1" />
<path stroke="#4750d1" d="M7 24h1M5 26h1" />
<path stroke="#5059d2" d="M15 24h1" />
<path stroke="#7e87e3" d="M16 24h1" />
<path stroke="#545cd4" d="M17 24h1" />
<path stroke="#545ed5" d="M18 24h1" />
<path stroke="#7f87e3" d="M19 24h1" />
<path stroke="#6870da" d="M20 24h1" />
<path stroke="#686eda" d="M3 25h1M8 26h1M16 27h1" />
<path stroke="#626bda" d="M4 25h1" />
<path stroke="#6d74dc" d="M5 25h1M17 27h1" />
<path stroke="#555fd4" d="M18 25h1" />
<path stroke="#696fdb" d="M13 26h1" />
<path stroke="#7e86e3" d="M17 26h1" />
<path stroke="#6870db" d="M15 27h1" />
</svg>