<svg xmlns="http://www.w3.org/2000/svg" viewBox="0 -0.5 28 28" shape-rendering="crispEdges">
<metadata>Made with Pixels to Svg https://codepen.io/shshaw/pen/XbxvNj</metadata>
<path stroke="#efe5b0" d="M0 0h1M15 1h1M23 1h1M13 2h1M15 3h1M18 3h1M21 4h1M7 5h1M8 6h1M12 6h1M17 8h2M2 9h1M12 9h1M5 11h1M9 11h1M7 12h1M14 13h1M5 14h1M21 14h1M18 15h1M0 16h1M21 16h1M26 16h1M9 17h1M12 18h1M16 18h1M5 19h2M15 19h1M10 20h1M15 20h1M18 20h1M20 20h1M17 21h1M24 22h1M27 23h1M11 24h2M14 24h1M10 25h1M14 25h1M23 26h2M26 26h1" />
<path stroke="#efe3aa" d="M1 0h1M20 10h1" />
<path stroke="#eee3ab" d="M2 0h1M1 5h1M18 14h1M26 21h1" />
<path stroke="#efe4b1" d="M3 0h1M10 0h1M17 1h1M27 1h1M3 2h1M5 2h1M26 2h1M6 3h1M23 3h1M20 4h1M22 4h1M27 4h1M25 5h1M1 6h1M5 6h1M22 6h1M5 7h2M15 7h1M17 7h1M25 7h3M11 8h1M13 8h1M1 9h1M4 9h1M3 10h1M17 10h1M25 10h1M5 12h1M4 13h1M10 13h1M24 13h1M14 14h1M5 17h1M10 19h2M27 19h1M8 20h1M22 20h1M18 21h1M23 21h1M16 22h1M4 24h1M18 24h1M16 25h1M25 25h1M13 26h1" />
<path stroke="#eadc93" d="M4 0h1" />
<path stroke="#eee4b0" d="M5 0h1M9 0h1M13 0h1M24 0h1M5 1h1M0 2h1M7 2h1M16 2h1M0 3h1M12 3h2M17 3h1M21 3h1M0 4h1M6 5h1M18 5h1M22 5h1M27 5h1M3 6h1M27 6h1M1 7h1M16 7h1M3 8h1M14 8h1M27 8h1M6 9h1M18 9h2M5 10h1M12 10h1M24 10h1M27 10h1M12 11h2M4 12h1M9 12h1M11 13h1M26 13h1M6 15h1M27 15h1M8 16h1M25 16h1M12 17h1M16 17h1M18 17h1M24 17h1M6 18h1M20 18h1M4 19h1M26 20h1M4 21h1M25 21h1M26 22h1M24 24h2M0 26h1M4 26h1M11 26h1M14 26h4M27 26h1M5 27h1M9 27h1M12 27h1" />
<path stroke="#efe4b0" d="M6 0h1M15 0h1M25 0h1M4 1h1M6 1h1M16 1h1M18 2h1M2 3h1M22 3h1M0 5h1M21 5h1M26 6h1M9 8h1M21 8h1M15 9h1M22 9h1M19 10h1M4 11h1M25 11h1M6 12h1M21 13h1M15 14h1M10 15h1M17 15h1M4 16h1M14 16h2M4 17h1M15 17h1M26 17h1M2 18h1M4 18h1M19 18h1M25 18h2M3 19h1M7 19h1M16 19h1M18 19h1M24 19h1M2 20h1M4 20h1M16 20h1M9 21h1M15 21h1M11 22h1M27 22h1M16 23h1M18 23h1M26 23h1M0 24h1M6 24h1M9 25h1M11 25h3M19 25h2M6 26h1M8 26h1M7 27h1M14 27h1" />
<path stroke="#efe2ab" d="M7 0h1M19 8h1M13 13h1M2 16h1M9 24h1" />
<path stroke="#efe5b1" d="M8 0h1M14 0h1M16 0h1M3 1h1M7 1h1M11 1h2M24 1h1M2 5h1M9 5h1M26 5h1M7 7h1M13 7h1M10 8h1M20 9h1M9 10h1M22 10h1M26 10h1M14 11h1M22 11h1M27 11h1M3 12h1M24 12h1M6 13h1M0 14h1M3 14h1M11 14h1M20 15h1M3 17h1M8 17h1M3 18h1M14 18h1M9 19h1M27 20h1M11 21h1M27 21h1M2 22h1M17 22h1M17 24h1M8 25h1M17 25h1M5 26h1M11 27h1M15 27h1M19 27h1" />
<path stroke="#ece0a4" d="M11 0h1" />
<path stroke="#efe3a8" d="M12 0h1" />
<path stroke="#ece0ab" d="M17 0h1" />
<path stroke="#eee3a8" d="M18 0h1" />
<path stroke="#eee4b1" d="M19 0h1M8 1h1M19 1h2M21 2h2M1 3h1M14 3h1M25 3h1M10 4h1M23 4h1M8 5h1M17 6h1M24 7h1M1 8h1M11 9h1M13 9h1M21 9h1M24 9h1M27 9h1M6 11h1M20 12h1M22 12h2M22 13h1M9 14h1M19 14h1M25 14h1M5 15h1M9 15h1M13 15h1M19 15h1M13 17h1M5 18h1M11 18h1M8 19h1M17 19h1M20 19h1M6 20h1M14 20h1M17 20h1M24 20h2M14 22h1M20 22h1M0 23h1M10 23h1M26 24h1M23 25h1M12 26h1M18 26h1M3 27h1M8 27h1M13 27h1" />
<path stroke="#ebd98e" d="M20 0h1" />
<path stroke="#eee2aa" d="M21 0h1M26 0h1M6 6h1M25 6h1M13 14h1M22 17h1" />
<path stroke="#efe2b0" d="M22 0h1M10 11h1M15 23h1" />
<path stroke="#eada8f" d="M23 0h1" />
<path stroke="#eee5b0" d="M27 0h1M0 1h1M13 1h1M25 1h1M2 2h1M11 3h1M27 3h1M17 4h1M23 5h1M21 6h1M24 6h1M11 7h1M12 8h1M8 9h1M0 10h2M0 11h1M7 11h1M18 11h1M10 12h3M26 12h2M0 13h1M8 13h1M12 13h1M19 13h1M17 14h1M27 14h1M10 17h1M17 17h1M8 18h1M24 18h1M27 18h1M21 19h1M19 21h1M21 21h1M19 22h1M1 23h1M5 23h1M17 23h1M8 24h1M20 24h1M15 25h1M21 25h1M26 25h1M19 26h1M25 26h1M1 27h1M6 27h1M16 27h3M20 27h1M23 27h1M27 27h1" />
<path stroke="#eee5b1" d="M1 1h1M14 1h1M22 1h1M26 1h1M8 3h1M16 3h1M1 4h1M24 4h1M16 5h1M7 6h1M12 7h1M24 8h1M7 9h1M16 9h2M25 9h2M23 10h1M24 11h1M13 12h1M25 12h1M5 13h1M9 13h1M18 13h1M20 14h1M12 15h1M12 16h1M17 16h1M27 16h1M20 17h2M27 17h1M5 20h1M21 20h1M16 21h1M20 21h1M18 22h1M3 23h1M9 23h1M10 24h1M27 24h1M27 25h1M0 27h1M10 27h1M21 27h1M26 27h1" />
<path stroke="#ecdc93" d="M2 1h1M7 3h1M18 25h1M10 26h1M24 27h2" />
<path stroke="#ede1a4" d="M9 1h1" />
<path stroke="#eee0ab" d="M10 1h1" />
<path stroke="#ebd68d" d="M18 1h1M17 2h1M15 10h1M23 11h1M25 13h1M15 18h1" />
<path stroke="#ecdc92" d="M21 1h1" />
<path stroke="#eadc92" d="M1 2h1M7 4h1M10 22h1" />
<path stroke="#ead885" d="M4 2h1M23 2h1M2 4h1M4 4h2M4 5h1M24 5h1M4 6h1M22 23h1M22 25h1" />
<path stroke="#ecdd92" d="M6 2h1M26 8h1" />
<path stroke="#edde9f" d="M8 2h1" />
<path stroke="#eddf9e" d="M9 2h1" />
<path stroke="#eee2a8" d="M10 2h1M9 7h1" />
<path stroke="#e9d281" d="M11 2h1" />
<path stroke="#ebd890" d="M12 2h1M16 24h1" />
<path stroke="#ece0a5" d="M14 2h1" />
<path stroke="#efe2a9" d="M15 2h1M25 17h1" />
<path stroke="#eee3b0" d="M19 2h1M3 15h1M6 16h1M19 20h1" />
<path stroke="#e8d17a" d="M20 2h1M19 3h1M13 5h1" />
<path stroke="#efe2af" d="M24 2h1" />
<path stroke="#eddc92" d="M25 2h1M9 20h1M25 22h1" />
<path stroke="#efe2aa" d="M27 2h1M11 15h1M5 21h1" />
<path stroke="#ebd885" d="M3 3h2M24 3h1M23 6h1M21 22h1M23 23h1" />
<path stroke="#ebd984" d="M5 3h1M15 11h1M7 21h2" />
<path stroke="#e8d280" d="M9 3h1" />
<path stroke="#ead891" d="M10 3h1" />
<path stroke="#e9d17a" d="M20 3h1M11 4h1M6 14h1M23 14h1M21 15h1" />
<path stroke="#ecdd93" d="M26 3h1M2 7h1M19 11h1M15 15h1M6 25h1" />
<path stroke="#ead984" d="M3 4h1M3 5h1M16 10h1M7 20h1M23 22h1M8 23h1" />
<path stroke="#ebd985" d="M6 4h1M5 5h1M16 12h1M15 13h1M5 22h1M24 23h1" />
<path stroke="#ebd381" d="M8 4h1" />
<path stroke="#ecd891" d="M9 4h1" />
<path stroke="#ecdd9d" d="M12 4h1M13 18h1" />
<path stroke="#e9d381" d="M13 4h1" />
<path stroke="#ead78d" d="M14 4h1M11 23h1" />
<path stroke="#ece2a7" d="M15 4h1M22 7h1" />
<path stroke="#ece1a9" d="M16 4h1" />
<path stroke="#e9d07a" d="M18 4h2M12 5h1M10 6h1M7 13h1M12 19h1" />
<path stroke="#eedfa1" d="M25 4h1M15 12h1M7 22h1" />
<path stroke="#ebdd92" d="M26 4h1" />
<path stroke="#ecdc9f" d="M10 5h1" />
<path stroke="#e9d07b" d="M11 5h1M11 6h1M20 6h1M24 14h1M22 16h1M24 16h1M14 19h1" />
<path stroke="#e9d280" d="M14 5h1" />
<path stroke="#ebd68c" d="M15 5h1" />
<path stroke="#ede1a8" d="M17 5h1" />
<path stroke="#e9d382" d="M19 5h1" />
<path stroke="#e8d07b" d="M20 5h1M25 15h1M11 20h1M13 22h1" />
<path stroke="#eddc93" d="M0 6h1M19 6h1M18 10h1" />
<path stroke="#ece3ab" d="M2 6h1M6 10h1" />
<path stroke="#eddca0" d="M9 6h1" />
<path stroke="#e9d17b" d="M13 6h1M10 7h1M23 15h1M13 20h1" />
<path stroke="#eddb9d" d="M14 6h1" />
<path stroke="#ead78c" d="M15 6h1M18 7h1M19 17h1M21 18h1M26 19h1" />
<path stroke="#ebd790" d="M16 6h1" />
<path stroke="#efe3b1" d="M18 6h1M8 10h1M18 18h1" />
<path stroke="#eee2ab" d="M0 7h1M22 27h1" />
<path stroke="#ecdf96" d="M3 7h1M19 16h1" />
<path stroke="#eddb90" d="M4 7h1" />
<path stroke="#ece0a2" d="M8 7h1M20 23h1" />
<path stroke="#eee3aa" d="M14 7h1M7 26h1" />
<path stroke="#ebd78c" d="M19 7h1M26 14h1M12 23h1" />
<path stroke="#eddea4" d="M20 7h1" />
<path stroke="#ece1a7" d="M21 7h1" />
<path stroke="#ecdb91" d="M23 7h1" />
<path stroke="#ece2aa" d="M0 8h1" />
<path stroke="#eadd99" d="M2 8h1" />
<path stroke="#efe3ab" d="M4 8h1M24 25h1" />
<path stroke="#eee2ae" d="M5 8h1M0 20h1M19 24h1" />
<path stroke="#edde97" d="M6 8h1" />
<path stroke="#ebd085" d="M7 8h1" />
<path stroke="#ebd893" d="M8 8h1" />
<path stroke="#eee3b1" d="M15 8h1M4 15h1M23 20h1M14 23h1" />
<path stroke="#eadd93" d="M16 8h1" />
<path stroke="#ece0a8" d="M20 8h1" />
<path stroke="#ebd792" d="M22 8h1" />
<path stroke="#ead78a" d="M23 8h1" />
<path stroke="#eee1a7" d="M25 8h1" />
<path stroke="#ebdb94" d="M0 9h1" />
<path stroke="#efe2b1" d="M3 9h1M11 11h1M14 17h1" />
<path stroke="#eee1aa" d="M5 9h1M21 11h1M27 13h1" />
<path stroke="#ead687" d="M9 9h1" />
<path stroke="#e9d07c" d="M10 9h1" />
<path stroke="#eddd92" d="M14 9h1M12 14h1M9 26h1M20 26h1" />
<path stroke="#eee1a9" d="M23 9h1" />
<path stroke="#ecdea3" d="M2 10h1" />
<path stroke="#ead992" d="M4 10h1M13 16h1" />
<path stroke="#ecdfa5" d="M7 10h1" />
<path stroke="#ece1ab" d="M10 10h1" />
<path stroke="#efe1ad" d="M11 10h1" />
<path stroke="#e9d284" d="M13 10h1" />
<path stroke="#ebd384" d="M14 10h1" />
<path stroke="#efe3a9" d="M21 10h1" />
<path stroke="#e8d687" d="M1 11h1M2 12h1M2 17h1M1 20h1M1 24h1M0 25h1M2 25h1M1 26h1" />
<path stroke="#e9d787" d="M2 11h1M2 26h1" />
<path stroke="#e8d686" d="M3 11h1M0 12h1M1 13h1M3 13h1M2 23h1M3 24h1M3 25h2" />
<path stroke="#efe3b0" d="M8 11h1M8 12h1" />
<path stroke="#ebd884" d="M16 11h1M22 21h1" />
<path stroke="#ead985" d="M17 11h1M17 12h1M6 21h1M7 23h1M21 24h1" />
<path stroke="#efe0aa" d="M20 11h1M7 15h1" />
<path stroke="#eee0a8" d="M26 11h1" />
<path stroke="#e9d686" d="M1 12h1M1 17h1M1 18h1M2 27h1" />
<path stroke="#ece1a0" d="M14 12h1" />
<path stroke="#ead884" d="M18 12h1M16 13h2M8 22h1M6 23h1M21 23h1M7 24h1" />
<path stroke="#ebdc93" d="M19 12h1M22 19h1M25 23h1" />
<path stroke="#ebd78d" d="M21 12h1M26 15h1" />
<path stroke="#eadb92" d="M2 13h1" />
<path stroke="#ead68c" d="M20 13h1" />
<path stroke="#e8d17b" d="M23 13h1M8 14h1M22 14h1M24 15h1M23 17h1M12 20h1M12 21h1" />
<path stroke="#ede0a8" d="M1 14h1" />
<path stroke="#e8d88d" d="M2 14h1" />
<path stroke="#eee2ac" d="M4 14h1" />
<path stroke="#eddfa1" d="M7 14h1" />
<path stroke="#ead68d" d="M10 14h1M11 17h1" />
<path stroke="#ecda8a" d="M16 14h1" />
<path stroke="#eadb94" d="M0 15h1M0 22h1" />
<path stroke="#eada95" d="M1 15h1" />
<path stroke="#ece0a7" d="M2 15h1" />
<path stroke="#ecdd9c" d="M8 15h1M7 16h1" />
<path stroke="#eddf97" d="M14 15h1" />
<path stroke="#edda90" d="M16 15h1" />
<path stroke="#e8d07a" d="M22 15h1M13 19h1M14 21h1" />
<path stroke="#ecdfa1" d="M1 16h1" />
<path stroke="#ebd894" d="M3 16h1" />
<path stroke="#eddd96" d="M5 16h1" />
<path stroke="#efe3ac" d="M9 16h1" />
<path stroke="#ece0a9" d="M10 16h1" />
<path stroke="#eee2af" d="M11 16h1" />
<path stroke="#ece2ad" d="M16 16h1M20 16h1" />
<path stroke="#edde96" d="M18 16h1" />
<path stroke="#e8d283" d="M23 16h1" />
<path stroke="#e8d786" d="M0 17h1M0 18h1M1 25h1" />
<path stroke="#ecd993" d="M6 17h1" />
<path stroke="#eddea3" d="M7 17h1M22 18h1" />
<path stroke="#eee0a5" d="M7 18h1" />
<path stroke="#ebd48c" d="M9 18h1" />
<path stroke="#ead280" d="M10 18h1" />
<path stroke="#efe3af" d="M17 18h1" />
<path stroke="#e8d48b" d="M23 18h1" />
<path stroke="#e8d787" d="M0 19h1M3 26h1" />
<path stroke="#ead98d" d="M1 19h1" />
<path stroke="#e9d687" d="M2 19h1" />
<path stroke="#eee2b1" d="M19 19h1M12 22h1" />
<path stroke="#efe3ad" d="M23 19h1" />
<path stroke="#ebd48b" d="M25 19h1" />
<path stroke="#ede2ab" d="M3 20h1M15 22h1" />
<path stroke="#ead993" d="M0 21h1M4 23h1" />
<path stroke="#e8db93" d="M1 21h1" />
<path stroke="#ede0a7" d="M2 21h1" />
<path stroke="#eee2b0" d="M3 21h1M19 23h1" />
<path stroke="#eada91" d="M10 21h1" />
<path stroke="#e9d282" d="M13 21h1" />
<path stroke="#eddd93" d="M24 21h1M21 26h1" />
<path stroke="#ede2aa" d="M1 22h1" />
<path stroke="#ebda94" d="M3 22h1" />
<path stroke="#ecdd99" d="M4 22h1" />
<path stroke="#ede1a1" d="M6 22h1" />
<path stroke="#e9d27e" d="M9 22h1" />
<path stroke="#eddb8a" d="M22 22h1" />
<path stroke="#e8d58b" d="M13 23h1" />
<path stroke="#e9d786" d="M2 24h1" />
<path stroke="#ebda95" d="M5 24h1" />
<path stroke="#ece2ab" d="M13 24h1M4 27h1" />
<path stroke="#ebd58d" d="M15 24h1" />
<path stroke="#ede0a1" d="M22 24h1" />
<path stroke="#efe1a0" d="M23 24h1" />
<path stroke="#e9d88a" d="M5 25h1" />
<path stroke="#ecda91" d="M7 25h1" />
<path stroke="#eddb91" d="M22 26h1" />
</svg>