<svg xmlns="http://www.w3.org/2000/svg" viewBox="0 -0.5 25 25" shape-rendering="crispEdges">
<metadata>Made with Pixels to Svg https://codepen.io/shshaw/pen/XbxvNj</metadata>
<path stroke="#99d8ea" d="M0 0h1M5 0h1M7 0h1M14 0h1M20 0h1M22 0h1M20 1h2M1 2h1M14 2h1M21 2h1M0 3h1M6 3h1M9 3h1M12 3h2M3 4h1M6 4h1M11 4h1M14 4h2M24 4h1M0 5h3M21 5h1M1 6h1M7 6h1M0 7h1M2 7h1M17 7h1M19 7h1M23 7h1M9 8h1M4 9h2M22 9h1M13 10h1M19 10h1M2 14h2M16 14h1M19 14h1M21 14h1M9 15h1M5 16h1M15 16h1M19 16h1M9 17h1M16 17h1M18 17h2M1 18h1M6 19h1M15 19h2M3 20h1M21 20h1M0 21h1M9 21h1M14 21h1M21 21h1M23 21h1M10 22h1M19 22h1M19 23h1M1 24h1M6 24h1M8 24h1M17 24h1" />
<path stroke="#99d9ea" d="M1 0h1M3 0h1M19 0h1M23 0h1M9 1h1M3 2h2M6 2h1M11 2h1M15 3h1M8 4h1M10 4h1M16 4h1M20 4h1M22 4h2M4 5h2M19 5h1M23 5h1M5 6h1M8 6h1M3 7h1M10 7h1M15 7h1M20 7h1M24 7h1M3 8h1M6 8h1M7 9h1M14 9h3M6 10h1M24 10h1M18 14h1M22 15h1M3 16h1M22 16h2M3 17h1M5 17h1M0 18h1M8 18h1M10 18h1M24 18h1M4 19h1M9 19h1M23 19h1M4 20h1M2 21h1M16 21h1M18 21h1M8 22h1M15 22h2M17 23h1M20 23h2M4 24h2M7 24h1M14 24h1" />
<path stroke="#99d9eb" d="M2 0h1M10 1h2M0 2h1M13 2h1M15 2h1M4 3h1M24 3h1M0 4h1M19 4h1M3 5h1M8 5h1M14 5h1M22 5h1M11 6h1M16 6h1M18 6h1M4 8h1M12 8h1M14 8h1M18 8h1M23 8h1M0 9h3M23 9h1M7 10h1M23 10h1M4 14h1M14 14h2M17 14h1M6 15h1M14 15h1M24 15h1M1 16h2M4 16h1M18 16h1M1 17h1M7 17h1M19 18h1M19 19h4M0 20h1M6 20h2M16 20h1M23 20h1M4 21h1M24 21h1M1 22h1M4 22h1M2 23h1M6 23h1M8 23h2M0 24h1M9 24h1M15 24h1M21 24h1M24 24h1" />
<path stroke="#98d8ea" d="M4 0h1M16 0h1M21 0h1M24 0h1M1 1h1M19 1h1M22 1h1M7 2h1M10 2h1M2 3h1M21 3h1M23 3h1M5 4h1M7 4h1M9 4h1M18 5h1M3 6h1M9 6h1M22 6h1M1 7h1M9 7h1M13 7h1M11 8h1M13 8h1M17 8h1M22 8h1M11 9h1M17 9h1M21 9h1M24 9h1M0 10h1M2 10h1M15 10h1M20 10h2M9 14h1M20 14h1M22 14h2M2 15h1M8 15h1M15 15h3M19 15h1M21 16h1M14 17h1M3 18h1M6 18h1M14 18h1M0 19h1M2 19h2M24 19h1M9 20h1M14 20h2M24 20h1M5 21h1M20 21h1M2 22h1M9 22h1M21 22h1M10 23h1M16 23h1M22 23h2M16 24h1M23 24h1" />
<path stroke="#98d9ea" d="M6 0h1M11 0h1M13 0h1M3 1h1M8 1h1M18 1h1M16 2h1M22 2h1M11 3h1M18 3h1M1 4h1M18 4h1M6 5h1M13 5h1M16 5h1M2 6h1M12 6h1M15 6h1M20 6h1M12 7h1M2 8h1M5 8h1M8 8h1M19 8h1M6 9h1M10 9h1M13 9h1M14 10h1M17 10h1M0 14h1M5 14h1M7 14h1M5 15h1M23 15h1M7 16h1M14 16h1M20 16h1M6 17h1M8 17h1M17 17h1M22 18h1M17 20h1M19 20h2M22 20h1M3 21h1M8 21h1M6 22h1M7 23h1M24 23h1M2 24h2M10 24h1" />
<path stroke="#99d8eb" d="M8 0h1M17 0h2M2 1h1M4 1h1M14 1h1M24 1h1M2 2h1M9 2h1M12 2h1M17 2h2M20 2h1M23 2h1M17 3h1M22 3h1M2 4h1M7 5h1M15 5h1M17 5h1M20 5h1M6 6h1M10 6h1M14 6h1M19 6h1M24 6h1M11 7h1M21 7h2M1 8h1M20 8h1M3 9h1M12 9h1M18 9h1M10 10h3M16 10h1M8 14h1M0 15h2M20 15h1M0 16h1M8 16h1M16 16h2M24 16h1M0 17h1M15 17h1M20 17h1M23 17h2M4 18h1M9 18h1M15 18h1M17 18h1M21 18h1M1 19h1M10 19h1M14 19h1M18 19h1M8 20h1M10 20h1M18 20h1M1 21h1M7 21h1M10 21h1M17 21h1M19 21h1M0 22h1M5 22h1M14 22h1M20 22h1M23 22h1M0 23h1M3 23h1M18 23h1M18 24h2" />
<path stroke="#98d8eb" d="M9 0h2M12 0h1M7 1h1M12 1h2M15 1h2M5 2h1M8 2h1M19 2h1M24 2h1M1 3h1M5 3h1M8 3h1M14 3h1M16 3h1M19 3h2M4 4h1M12 4h2M17 4h1M9 5h2M12 5h1M24 5h1M0 6h1M23 6h1M8 7h1M14 7h1M18 7h1M7 8h1M21 8h1M24 8h1M8 9h2M4 10h2M9 10h1M18 10h1M22 10h1M1 14h1M24 14h1M7 15h1M10 15h1M18 15h1M21 15h1M6 16h1M9 16h1M4 17h1M10 17h1M21 17h1M5 18h1M7 18h1M16 18h1M18 18h1M23 18h1M8 19h1M17 19h1M1 20h2M6 21h1M15 21h1M22 21h1M18 22h1M22 22h1M1 23h1M4 23h2" />
<path stroke="#98d9eb" d="M15 0h1M0 1h1M5 1h2M17 1h1M23 1h1M3 3h1M7 3h1M10 3h1M21 4h1M11 5h1M4 6h1M13 6h1M17 6h1M21 6h1M4 7h4M16 7h1M0 8h1M10 8h1M15 8h2M19 9h2M1 10h1M3 10h1M8 10h1M6 14h1M10 14h1M3 15h2M10 16h1M2 17h1M22 17h1M2 18h1M20 18h1M5 19h1M7 19h1M5 20h1M3 22h1M7 22h1M17 22h1M24 22h1M14 23h2M20 24h1M22 24h1" />
<path stroke="#000100" d="M0 11h1M4 11h1M9 11h1M12 11h1M23 11h1M1 12h1M9 12h2M16 12h1M23 12h1M10 13h1M14 13h1M18 13h1M11 14h1M13 16h1M11 24h1" />
<path stroke="#000101" d="M1 11h1M14 11h1M20 11h1M13 12h1M7 13h2M16 13h2M22 13h1M12 20h1M12 21h1M13 22h1" />
<path stroke="#010001" d="M2 11h1M15 11h1M5 12h1M11 12h1M17 12h1M24 12h1M20 13h1M12 18h1M11 19h1" />
<path stroke="#000000" d="M3 11h1M8 11h1M19 11h1M0 12h1M15 12h1M1 13h1M13 14h1M12 15h2M12 17h1M11 18h1M13 19h1M13 21h1M11 22h1M12 23h1" />
<path stroke="#010101" d="M5 11h2M13 11h1M16 11h1M22 11h1M24 11h1M3 12h2M18 12h1M22 12h1M0 13h1M5 13h1M11 15h1M11 20h1M13 23h1" />
<path stroke="#000001" d="M7 11h1M2 12h1M6 12h1M12 12h1M14 12h1M20 12h1M9 13h1M19 13h1M21 13h1M12 14h1M11 16h1M13 18h1M13 20h1M11 21h1M12 22h1M12 24h1" />
<path stroke="#010000" d="M10 11h1M19 12h1M21 12h1M2 13h1M4 13h1M6 13h1M12 13h2M12 16h1M13 17h1M12 19h1M13 24h1" />
<path stroke="#010100" d="M11 11h1M17 11h2M21 11h1M7 12h2M3 13h1M11 13h1M15 13h1M23 13h2M11 17h1M11 23h1" />
</svg>